<svg width="16" height="16" viewBox="0 0 16 16" fill="none" xmlns="http://www.w3.org/2000/svg">
<path d="M14.6667 6.95001C14.8724 8.33709 14.6355 9.75371 13.9896 10.9984C13.3438 12.243 12.3219 13.2524 11.0694 13.8828C9.81686 14.5132 8.39743 14.7327 7.013 14.5099C5.62856 14.2871 4.34962 13.6335 3.35809 12.6419C2.36655 11.6504 1.71291 10.3715 1.49013 8.98704C1.26736 7.6026 1.4868 6.18317 2.11723 4.93064C2.74767 3.6781 3.757 2.65625 5.00166 2.01042C6.24633 1.36458 7.66294 1.12766 9.05002 1.33335C10.4649 1.54316 11.7748 2.20245 12.7862 3.21386C13.7976 4.22526 14.4569 5.53514 14.6667 6.95001Z" stroke="#808080" stroke-width="2" stroke-linecap="round" stroke-linejoin="round"/>
</svg>
